#!OML:ASF E:\emotionWalksFemale\Project 1\Capture day 1\Session 1\Female1.ASF
:FULLY-SPECIFIED
:DEGREES
313
root 8.96281 10.3755 -7.26447 -167.558 2.82771 -176.022
lowerback 49.614 -0.14823 1.28875
upperback 2.18728 3.09864 1.36974
thorax -18.5492 2.05739 -0.92999
lowerneck -17.7238 -5.3036 -5.38881
upperneck -19.1719 -1.9962 6.97004
head -2.83806 0.880377 2.93881
rclavicle 8.34896e-015 8.15017e-015
rhumerus 39.5353 0.44831 -60.1782
rradius 39.343
rwrist 12.2307
rhand -15.792 -52.7817
rfingers 7.12502
rthumb 10.4008 -82.5044
lclavicle 8.34896e-015 8.15017e-015
lhumerus 54.2592 2.99665 78.8728
lradius 30.4584
lwrist -4.62787
lhand -26.5737 -65.1853
lfingers 7.12502
lthumb -0.00838044 -35.2055
rfemur -81.9701 5.15128 27.7772
rtibia 106.738
rfoot -33.8526 -19.2363
rtoes 0.290568
lfemur -87.6891 4.38999 -23.671
ltibia 105.862
lfoot -35.0058 5.40976
ltoes -30.0207
314
root 8.96648 10.4364 -7.2806 -167.29 2.46379 -175.614
lowerback 49.1726 -0.249338 1.66071
upperback 2.13762 3.16341 1.53702
thorax -18.5282 2.04625 -0.941737
lowerneck -17.9487 -5.39285 -5.49753
upperneck -19.2008 -2.0335 7.01066
head -2.81139 0.893581 2.96735
rclavicle 1.2921e-014 1.15295e-014
rhumerus 41.3631 -0.922609 -58.8765
rradius 40.2085
rwrist 10.5713
rhand -15.9762 -53.0736
rfingers 7.12502
rthumb 10.2231 -82.8052
lclavicle 1.2921e-014 1.15295e-014
lhumerus 57.092 3.27892 78.5715
lradius 30.7886
lwrist -4.05514
lhand -26.8169 -65.2813
lfingers 7.12502
lthumb -0.243284 -35.3017
rfemur -81.55 5.57459 28.0187
rtibia 106.057
rfoot -34.0998 -20.1236
rtoes -0.493481
lfemur -87.6532 4.51541 -23.2137
ltibia 105.374
lfoot -34.8701 4.68746
ltoes -29.4738
315
root 8.96644 10.5055 -7.30662 -167.027 2.20586 -175.432
lowerback 47.7023 -0.244701 1.8065
upperback 3.15826 3.19102 1.76875
thorax -18.6324 2.03061 -0.902162
lowerneck -17.9083 -5.4954 -5.62909
upperneck -19.4413 -2.09547 6.96728
head -2.88633 0.896271 2.97413
rclavicle 2.76311e-014 1.74931e-014
rhumerus 42.994 -2.53532 -57.942
rradius 41.2679
rwrist 9.0979
rhand -16.5237 -53.2036
rfingers 7.12502
rthumb 9.69487 -82.9605
lclavicle 2.76311e-014 1.74931e-014
lhumerus 59.8708 3.5342 78.013
lradius 31.136
lwrist -3.16398
lhand -26.9778 -65.2264
lfingers 7.12502
lthumb -0.398635 -35.2471
rfemur -81.1545 5.83934 28.0536
rtibia 105.436
rfoot -34.115 -20.4008
rtoes 0.0108537
lfemur -87.3903 4.54368 -23.0221
ltibia 104.796
lfoot -34.7393 4.48166
ltoes -29.9093
316
root 8.96023 10.5623 -7.34779 -166.827 2.11882 -175.574
lowerback 46.9232 -0.229957 1.82804
upperback 3.14532 3.12371 1.73894
thorax -18.4189 1.98506 -0.890494
lowerneck -17.8111 -5.61642 -5.82158
upperneck -19.6794 -2.16692 7.08299
head -2.96212 0.891378 3.04148
rclavicle 2.24627e-014 1.90833e-014
rhumerus 44.422 -4.25694 -57.2024
rradius 42.5355
rwrist 8.03535
rhand -17.4654 -53.8337
rfingers 7.12502
rthumb 8.78621 -83.6308
lclavicle 2.24627e-014 1.90833e-014
lhumerus 62.476 3.94623 77.7083
lradius 31.4944
lwrist -2.61265
lhand -27.046 -65.3235
lfingers 7.12502
lthumb -0.464553 -35.3443
rfemur -80.8289 6.11469 27.6867
rtibia 104.988
rfoot -33.5518 -20.657
rtoes -0.287681
lfemur -86.9403 4.44337 -23.1787
ltibia 104.268
lfoot -34.8466 4.47307
ltoes -30.1353
317
root 8.95857 10.6277 -7.39241 -166.735 2.12557 -175.7
lowerback 46.2642 -0.169293 1.75346
upperback 3.0678 3.05558 1.68828
thorax -18.3202 1.93782 -0.855857
lowerneck -17.5748 -5.6898 -6.02749
upperneck -19.8824 -2.20155 7.2861
head -3.04532 0.886914 3.14105
rclavicle 4.37326e-015 5.36719e-015
rhumerus 45.7411 -5.72011 -56.254
rradius 43.7411
rwrist 6.68788
rhand -18.24 -53.7262
rfingers 7.12502
rthumb 8.03866 -83.5533
lclavicle 4.37326e-015 5.36719e-015
lhumerus 65.3324 4.47657 77.5526
lradius 31.3937
lwrist -2.15035
lhand -26.8904 -65.5747
lfingers 7.12502
lthumb -0.314278 -35.5952
rfemur -80.2507 6.58548 27.2785
rtibia 104.436
rfoot -34.1411 -21.2245
rtoes -0.0393526
lfemur -86.3174 4.465 -23.2929
ltibia 103.716
lfoot -35.0398 4.39623
ltoes -30.5037
318
root 8.96041 10.7034 -7.4365 -166.564 2.04656 -175.73
lowerback 45.5447 -0.200541 1.82052
upperback 2.98411 2.93563 1.61017
thorax -18.198 1.858 -0.89723
lowerneck -17.4567 -5.66624 -6.10204
upperneck -20.0259 -2.12069 7.39602
head -3.10629 0.93692 3.19198
rclavicle -4.17448e-015 -7.95139e-015
rhumerus 47.3266 -7.17131 -55.384
rradius 44.6332
rwrist 5.02425
rhand -18.7236 -52.824
rfingers 7.12502
rthumb 7.57197 -82.6685
lclavicle -4.17448e-015 -7.95139e-015
lhumerus 67.3252 5.06789 76.9228
lradius 32.217
lwrist -1.38541
lhand -26.6778 -65.9783
lfingers 7.12502
lthumb -0.108916 -35.9986
rfemur -79.6556 7.01959 26.9947
rtibia 103.766
rfoot -34.3397 -21.5937
rtoes 0.828617
lfemur -85.7621 4.46825 -23.2769
ltibia 103.089
lfoot -35.1063 4.35354
ltoes -31.0994
319
root 8.96156 10.7847 -7.48163 -166.337 1.85703 -175.737
lowerback 44.6838 -0.307359 1.97982
upperback 2.96048 2.77342 1.54939
thorax -17.948 1.76208 -0.942389
lowerneck -17.4779 -5.63224 -6.09152
upperneck -20.1065 -2.03812 7.40506
head -3.13342 0.988853 3.19566
rclavicle -1.03368e-014 -6.16232e-015
rhumerus 48.8599 -8.61335 -54.5267
rradius 45.6713
rwrist 3.15298
rhand -19.9183 -51.9296
rfingers 7.12502
rthumb 6.41869 -81.8123
lclavicle -1.03368e-014 -6.16232e-015
lhumerus 69.5828 5.74722 76.6329
lradius 32.7045
lwrist -1.20369
lhand -26.4735 -66.8053
lfingers 7.12502
lthumb 0.0884364 -36.8256
rfemur -79.1083 7.36718 26.7565
rtibia 103.03
rfoot -34.3973 -21.8719
rtoes 1.73223
lfemur -85.2187 4.35747 -23.2034
ltibia 102.38
lfoot -35.1002 4.24677
ltoes -30.9296
320
root 8.96438 10.8809 -7.52184 -166.187 1.64195 -175.797
lowerback 44.05 -0.39562 2.104
upperback 2.82374 2.61136 1.47585
thorax -17.9076 1.65712 -0.991447
lowerneck -17.5611 -5.62944 -5.89443
upperneck -20.0532 -2.07179 7.25938
head -3.11065 0.962436 3.11468
rclavicle -7.15625e-015 5.96354e-015
rhumerus 49.9805 -9.87052 -53.6112
rradius 46.9313
rwrist 0.805352
rhand -21.4303 -51.0766
rfingers 7.12502
rthumb 4.95886 -80.9986
lclavicle -7.15625e-015 5.96354e-015
lhumerus 71.7893 6.35849 76.5068
lradius 32.9618
lwrist -1.42757
lhand -25.9903 -66.3955
lfingers 7.12502
lthumb 0.555123 -36.4165
rfemur -78.4082 7.75753 26.4513
rtibia 102.16
rfoot -34.4232 -22.209
rtoes 2.7596
lfemur -84.4824 4.23038 -23.1757
ltibia 101.499
lfoot -35.0326 4.41716
ltoes -31.8096
321
root 8.96751 10.9736 -7.55883 -166.066 1.4406 -175.853
lowerback 43.6437 -0.484987 2.35235
upperback 2.56019 2.49214 1.33958
thorax -18.0888 1.54577 -1.20458
lowerneck -17.5062 -0.832186 -7.31933
upperneck -20.4799 -3.33826 5.84428
head -3.29845 -3.06954 3.08478
rclavicle -9.54166e-015 1.19271e-015
rhumerus 51.2092 -11.646 -53.3373
rradius 47.9449
rwrist 0.807705
rhand -19.943 -52.6809
rfingers 7.12502
rthumb 6.39485 -82.5643
lclavicle -9.54166e-015 1.19271e-015
lhumerus 73.6938 6.84204 75.8945
lradius 33.3786
lwrist -1.25993
lhand -25.6883 -66.0144
lfingers 7.12502
lthumb 0.846757 -36.0363
rfemur -77.7085 8.14912 26.1665
rtibia 101.246
rfoot -34.2873 -22.6323
rtoes 3.44021
lfemur -83.774 4.10979 -23.1392
ltibia 100.579
lfoot -34.948 4.55081
ltoes -32.8849
322
root 8.97199 11.068 -7.60088 -166.015 1.30337 -175.892
lowerback 42.9572 -0.512874 2.43679
upperback 2.54211 2.41324 1.29085
thorax -17.8771 1.4938 -1.24751
lowerneck -17.7464 -0.887425 -7.47294
upperneck -20.3949 -3.36969 6.03791
head -3.23037 -3.08151 3.1642
rclavicle -2.72335e-014 -2.08724e-014
rhumerus 52.7902 -13.7676 -53.3894
rradius 48.7541
rwrist 2.01939
rhand -16.0396 -49.3986
rfingers 7.12502
rthumb 10.162 -79.1332
lclavicle -2.72335e-014 -2.08724e-014
lhumerus 75.6504 7.59549 75.0386
lradius 33.8307
lwrist -0.754778
lhand -25.77 -65.6785
lfingers 7.12502
lthumb 0.767914 -35.7002
rfemur -76.8535 8.55417 25.9284
rtibia 100.29
rfoot -34.2189 -23.0618
rtoes 3.28901
lfemur -82.9541 4.05725 -23.0424
ltibia 99.6541
lfoot -34.9749 4.14654
ltoes -32.3472
323
root 8.97762 11.1757 -7.6544 -166.021 1.29642 -176.024
lowerback 41.9602 -0.408115 2.13054
upperback 2.712 2.34006 1.33184
thorax -17.3394 1.49259 -0.980746
lowerneck -18.049 -0.781356 -7.08078
upperneck -20.2706 -3.35576 5.5575
head -3.17076 -3.09747 2.94017
rclavicle -1.59028e-015 -7.95139e-015
rhumerus 54.0897 -15.1334 -52.4631
rradius 50.0265
rwrist 0.260513
rhand -16.7577 -51.1741
rfingers 7.12502
rthumb 9.46914 -80.9413
lclavicle -1.59028e-015 -7.95139e-015
lhumerus 77.5596 8.61449 74.2018
lradius 34.356
lwrist -0.46269
lhand -25.1456 -65.9508
lfingers 7.12502
lthumb 1.37091 -35.9755
rfemur -75.7715 9.05521 25.5677
rtibia 99.2733
rfoot -34.2505 -23.5739
rtoes 2.63632
lfemur -81.8635 4.09136 -23.0539
ltibia 98.6573
lfoot -35.0209 3.76034
ltoes -31.4708
